<svg id="visual" viewBox="0 0 900 900" width="900" height="900" xmlns="http://www.w3.org/2000/svg" xmlns:xlink="http://www.w3.org/1999/xlink" version="1.1"><rect x="0" y="0" width="900" height="900" fill="#002233"></rect><path d="M0 390L8.8 452.7C17.7 515.3 35.3 640.7 53 666.7C70.7 692.7 88.3 619.3 106 589.7C123.7 560 141.3 574 159 559.2C176.7 544.3 194.3 500.7 212 483.8C229.7 467 247.3 477 265 477.8C282.7 478.7 300.3 470.3 318 492C335.7 513.7 353.3 565.3 371 589C388.7 612.7 406.3 608.3 423.8 624.2C441.3 640 458.7 676 476.2 636.5C493.7 597 511.3 482 529 487.2C546.7 492.3 564.3 617.7 582 677.5C599.7 737.3 617.3 731.7 635 675.2C652.7 618.7 670.3 511.3 688 505.7C705.7 500 723.3 596 741 596.3C758.7 596.7 776.3 501.3 794 459.5C811.7 417.7 829.3 429.3 847 431C864.7 432.7 882.3 424.3 891.2 420.2L900 416L900 901L891.2 901C882.3 901 864.7 901 847 901C829.3 901 811.7 901 794 901C776.3 901 758.7 901 741 901C723.3 901 705.7 901 688 901C670.3 901 652.7 901 635 901C617.3 901 599.7 901 582 901C564.3 901 546.7 901 529 901C511.3 901 493.7 901 476.2 901C458.7 901 441.3 901 423.8 901C406.3 901 388.7 901 371 901C353.3 901 335.7 901 318 901C300.3 901 282.7 901 265 901C247.3 901 229.7 901 212 901C194.3 901 176.7 901 159 901C141.3 901 123.7 901 106 901C88.3 901 70.7 901 53 901C35.3 901 17.7 901 8.8 901L0 901Z" fill="#0066FF" stroke-linecap="round" stroke-linejoin="miter"></path></svg>